<svg id="visual" viewBox="0 0 962 300" width="962" height="300" xmlns="http://www.w3.org/2000/svg" xmlns:xlink="http://www.w3.org/1999/xlink" version="1.1"><rect x="0" y="0" width="962" height="300" fill="#161619"></rect><path d="M0 223L22.8 216.3C45.7 209.7 91.3 196.3 137.2 196.3C183 196.3 229 209.7 274.8 211.2C320.7 212.7 366.3 202.3 412.2 198C458 193.7 504 195.3 549.8 194.5C595.7 193.7 641.3 190.3 687.2 187.2C733 184 779 181 824.8 186C870.7 191 916.3 204 939.2 210.5L962 217L962 301L939.2 301C916.3 301 870.7 301 824.8 301C779 301 733 301 687.2 301C641.3 301 595.7 301 549.8 301C504 301 458 301 412.2 301C366.3 301 320.7 301 274.8 301C229 301 183 301 137.2 301C91.3 301 45.7 301 22.8 301L0 301Z" fill="#5ce36a"></path><path d="M0 200L22.8 203.2C45.7 206.3 91.3 212.7 137.2 216.7C183 220.7 229 222.3 274.8 225.2C320.7 228 366.3 232 412.2 230C458 228 504 220 549.8 216.7C595.7 213.3 641.3 214.7 687.2 217.2C733 219.7 779 223.3 824.8 224.5C870.7 225.7 916.3 224.3 939.2 223.7L962 223L962 301L939.2 301C916.3 301 870.7 301 824.8 301C779 301 733 301 687.2 301C641.3 301 595.7 301 549.8 301C504 301 458 301 412.2 301C366.3 301 320.7 301 274.8 301C229 301 183 301 137.2 301C91.3 301 45.7 301 22.8 301L0 301Z" fill="#3edb4f"></path><path d="M0 228L22.8 228.3C45.7 228.7 91.3 229.3 137.2 229.3C183 229.3 229 228.7 274.8 227.8C320.7 227 366.3 226 412.2 228.7C458 231.3 504 237.7 549.8 237.2C595.7 236.7 641.3 229.3 687.2 228.2C733 227 779 232 824.8 236.3C870.7 240.7 916.3 244.3 939.2 246.2L962 248L962 301L939.2 301C916.3 301 870.7 301 824.8 301C779 301 733 301 687.2 301C641.3 301 595.7 301 549.8 301C504 301 458 301 412.2 301C366.3 301 320.7 301 274.8 301C229 301 183 301 137.2 301C91.3 301 45.7 301 22.8 301L0 301Z" fill="#00d32d"></path><path d="M0 259L22.8 260.3C45.7 261.7 91.3 264.3 137.2 265.7C183 267 229 267 274.8 263.7C320.7 260.3 366.3 253.7 412.2 251.8C458 250 504 253 549.8 252.5C595.7 252 641.3 248 687.2 246.5C733 245 779 246 824.8 247.2C870.7 248.3 916.3 249.7 939.2 250.3L962 251L962 301L939.2 301C916.3 301 870.7 301 824.8 301C779 301 733 301 687.2 301C641.3 301 595.7 301 549.8 301C504 301 458 301 412.2 301C366.3 301 320.7 301 274.8 301C229 301 183 301 137.2 301C91.3 301 45.7 301 22.8 301L0 301Z" fill="#00b729"></path><path d="M0 275L22.8 276.8C45.7 278.7 91.3 282.3 137.2 282.3C183 282.3 229 278.7 274.8 276C320.7 273.3 366.3 271.7 412.2 271.8C458 272 504 274 549.8 274C595.7 274 641.3 272 687.2 272C733 272 779 274 824.8 276C870.7 278 916.3 280 939.2 281L962 282L962 301L939.2 301C916.3 301 870.7 301 824.8 301C779 301 733 301 687.2 301C641.3 301 595.7 301 549.8 301C504 301 458 301 412.2 301C366.3 301 320.7 301 274.8 301C229 301 183 301 137.2 301C91.3 301 45.7 301 22.8 301L0 301Z" fill="#009b24"></path></svg>